inDegrees=no
num_controls=7
num_derivatives=13
num_iterations=76
num_multipliers=7
num_parameters=0
num_slacks=7
num_states=26
objective=0.334248
objective_accelerations=0.036786
objective_balance=0.001309
objective_effort=0.027044
objective_height=0.267639
objective_ligament=0.001471
solver_duration=784.338512
status=Solve_Succeeded
success=true
DataType=double
version=3
OpenSimVersion=4.5
endheader
time	/jointset/ground_pelvis/pelvis_tilt/value	/jointset/ground_pelvis/pelvis_tx/value	/jointset/ground_pelvis/pelvis_ty/value	/jointset/hip_r/hip_flexion_r/value	/jointset/hip_r/hip_adduction_r/value	/jointset/hip_r/hip_rotation_r/value	/jointset/back/lumbar_extension/value	/jointset/patellofemoral_r/patellar_flexion_r/value	/jointset/knee_r/knee_flexion_r/value	/jointset/knee_r/knee_adduction_r/value	/jointset/knee_r/knee_rotation_r/value	/jointset/ankle_r/ankle_angle_r/value	/jointset/subtalar_r/subtalar_angle_r/value	/jointset/ground_pelvis/pelvis_tilt/speed	/jointset/ground_pelvis/pelvis_tx/speed	/jointset/ground_pelvis/pelvis_ty/speed	/jointset/hip_r/hip_flexion_r/speed	/jointset/hip_r/hip_adduction_r/speed	/jointset/hip_r/hip_rotation_r/speed	/jointset/back/lumbar_extension/speed	/jointset/patellofemoral_r/patellar_flexion_r/speed	/jointset/knee_r/knee_flexion_r/speed	/jointset/knee_r/knee_adduction_r/speed	/jointset/knee_r/knee_rotation_r/speed	/jointset/ankle_r/ankle_angle_r/speed	/jointset/subtalar_r/subtalar_angle_r/speed	/forceset/tau_hip_flexion_r	/forceset/tau_hip_adduction_r	/forceset/tau_hip_rotation_r	/forceset/tau_knee_flexion_r	/forceset/tau_ankle_angle_r	/forceset/tau_subtalar_angle_r	/forceset/tau_lumbar_extension	lambda_cid13_p0	lambda_cid14_p0	lambda_cid14_p1	lambda_cid14_p2	lambda_cid14_p3	lambda_cid14_p4	lambda_cid14_p5	/jointset/ground_pelvis/pelvis_tilt/accel	/jointset/ground_pelvis/pelvis_tx/accel	/jointset/ground_pelvis/pelvis_ty/accel	/jointset/hip_r/hip_flexion_r/accel	/jointset/hip_r/hip_adduction_r/accel	/jointset/hip_r/hip_rotation_r/accel	/jointset/back/lumbar_extension/accel	/jointset/patellofemoral_r/patellar_flexion_r/accel	/jointset/knee_r/knee_flexion_r/accel	/jointset/knee_r/knee_adduction_r/accel	/jointset/knee_r/knee_rotation_r/accel	/jointset/ankle_r/ankle_angle_r/accel	/jointset/subtalar_r/subtalar_angle_r/accel	gamma_cid13_p0	gamma_cid14_p0	gamma_cid14_p1	gamma_cid14_p2	gamma_cid14_p3	gamma_cid14_p4	gamma_cid14_p5
0	-0.01070543672987112	0.1336352710021557	0.9326519783066642	0.1934211968871041	-0.2362855289241777	-0.2340018020906718	-0.2903787966825928	0.23117862733634	0.2311786273363406	0.1507209404943509	0.1707757354904537	0.089344008118978	0.05372122070265641	0	0	0	0	0	0	0	0	0	0	0	0	0	0.1054928063288954	-0.03758897887232886	0.006143833082455478	-0.2431282171173894	0.1211298173836707	-0.1267230817132561	-0.02705425074866097	-29.91331675971804	-9.327278858241232	-51.6784009446822	2.960450137347368	3.782441387679239	-611.8187597544174	17.5027691953199	-2.066589525009178	-1.911483271614681	-0.8226217980363406	10.23928087167995	0.3219275137773794	2.20101752310152	-6.259921997639086	10.01447163395957	10.01447163395961	-3.234458625907738	0.337752851929651	2.675982319544179	1.121696681035458	6.460181405550265e-08	5.286454179744709e-08	-4.068228272834511e-07	3.398931985585141e-07	4.384645730437408e-09	2.369055345606017e-07	-3.827657315449514e-07
0.01	-0.0108034685214818	0.1335422391366842	0.9326119706901324	0.1939200144178229	-0.236267223635103	-0.2338905654294795	-0.2906930142915081	0.2316705067762757	0.2316705067762755	0.1505569633784021	0.1707876950676854	0.08947785867534809	0.05378003426580333	-0.01959665394978544	-0.01837268683940211	-0.007986404612452966	0.09921132238750352	0.003601878203961426	0.02218059904913254	-0.06241221871885241	0.09793833810550882	0.09793833810550891	-0.03254749747949669	0.002352593011088578	0.02682346842391433	0.01170769529479888	0.1069605863898429	-0.05832299777533377	0.005697284689038524	-0.2515266265494707	0.1316184524268305	-0.1133578075979512	-0.02682396834451006	-29.91805207611624	-5.273845489811413	-45.08280719185382	1.816034564771923	-1.290797623039298	-613.2821735635622	32.12357974846146	-1.904749422618785	-1.765107574905012	-0.7843346076533028	9.679232280145602	0.3704357335723542	2.216638910718286	-6.167176349400779	9.617869496259827	9.617869496259818	-3.227739932446408	0.1781808149418475	2.693542099837144	1.18702913608499	8.590887183600528e-08	4.456167381895129e-08	-5.321476886103518e-07	4.391415935056338e-07	2.925170328484549e-08	1.207490277637852e-07	-5.205738609130459e-07
0.02	-0.0110971760711212	0.1332724911658583	0.932492562064515	0.1953943800439892	-0.2362146760120162	-0.233559511214816	-0.2916184149956903	0.2331286405167473	0.2331286405167476	0.1500749423629588	0.1708220142328824	0.08988154651516193	0.05395426941837478	-0.03913515160579447	-0.03534322107087662	-0.01588020181704848	0.1951096190894099	0.006848466802596542	0.04396351069423163	-0.1222366190534053	0.1932508601075492	0.1932508601075492	-0.06360877989802383	0.004471917591911892	0.05396745668871214	0.02308431788491318	0.108428366450793	-0.07905701667833905	0.005250736295642245	-0.2599250359815533	0.1421070874699901	-0.09999253348264706	-0.02659368594035696	-29.93181493271803	-1.141441582576679	-38.49770656337693	0.7010733799908375	-6.278873701327282	-613.4309418015689	46.39684461394765	-2.05495826625391	-1.631052750029148	-0.804100316464852	9.576675734560521	0.2508695927121176	2.121480042294831	-5.742358320779187	9.489308413265883	9.489308413265885	-2.937215613713827	0.2910991658765962	2.740086287720886	1.055482140098549	1.072159296165079e-07	3.62588058404555e-08	-6.574725499372524e-07	5.383899884527536e-07	5.411876083925358e-08	4.592520966968683e-09	-6.583819902811404e-07
0.03	-0.01158552909573275	0.1328383629204977	0.9322944601176706	0.1978127066763645	-0.2361313469918548	-0.2330147457468432	-0.2931290188183953	0.2355267979089554	0.2355267979089559	0.1492895005487369	0.170878125238582	0.09055605537891354	0.05424017265226456	-0.05844135356047611	-0.051416573520952	-0.02373934342353471	0.2881157403610919	0.009793305517413767	0.06486922728068614	-0.1794859049562627	0.2859237074331232	0.285923707433123	-0.0932922168952889	0.006714405946381873	0.08077469084881521	0.03402887613006233	0.1022542033651291	-0.08066489214971452	0.006021143825474125	-0.2529387277929664	0.1316367583018573	-0.0937749594250331	-0.02161433912078692	-29.95404223923778	-4.184045059022481	-36.17808694680831	0.1575675513369149	-4.806549880342301	-613.7607122120104	50.02221378399836	-1.854329876923943	-1.585587396193254	-0.7766940143117689	9.096590744309125	0.3126929054449904	2.057169314457845	-5.656477645361	9.087714727801584	9.087714727801565	-2.955851585335147	0.1855460257189583	2.627109118517973	1.103785331280815	1.170839607269907e-07	3.408185248712279e-08	-6.927499917932399e-07	5.963920142268829e-07	6.211626898381615e-08	-6.378441458662866e-08	-7.15974506125591e-07
0.04	-0.0122641198832605	0.1322454789698971	0.932017792168447	0.2011478966056242	-0.23601928920563	-0.232264512743478	-0.2952001682841933	0.2388379721415374	0.2388379721415377	0.1482128355960133	0.1709556055989288	0.09149385001193916	0.05463349000151736	-0.07718270418910425	-0.06709436211887883	-0.03159340229287548	0.3784822784662584	0.0125942200153708	0.08505701777262399	-0.2343457476720014	0.3758542281826341	0.3758542281826339	-0.1218534075966452	0.008745788520321575	0.1066246105434366	0.04456714095752003	0.09608004027946178	-0.08227276762109245	0.006791551355322895	-0.2459524196043846	0.1211664291337219	-0.08755738536742345	-0.01663499230121746	-29.98361240271205	-7.153830407323424	-33.86532464862438	-0.3624484849544732	-3.267159686599019	-612.8970913840423	53.33383997624423	-1.941988001043223	-1.551939979599424	-0.8030837690357632	9.048759101257399	0.2220847493400793	1.977894823391506	-5.264469683355471	8.940843098053266	8.940843098053278	-2.71276635453208	0.2488780097705378	2.548623394624553	0.9742234565602635	1.267161356174731e-07	3.203120665183468e-08	-7.26170785825085e-07	6.535435993995073e-07	6.976595136735096e-08	-1.311762043413967e-07	-7.719130917942964e-07
0.05	-0.01312786117013675	0.1314980378041228	0.9316623287651032	0.2053740323194542	-0.2358802227601371	-0.2313166420116921	-0.2978076731030893	0.2430351796424491	0.2430351796424496	0.1468567058006064	0.1710529965235033	0.09268568435324323	0.05512994676758749	-0.09548236683825027	-0.08230257331781307	-0.0395179437396933	0.4662978999448705	0.01519695344057995	0.1043808063101641	-0.2867763204384228	0.4631489945883502	0.4631489945883497	-0.1491865934851075	0.01069304297687123	0.1316204168766878	0.05467282065391436	0.09066981862115323	-0.07500438232688257	0.007238750496896854	-0.241653080635106	0.1167347458154467	-0.08892606436614468	-0.0121938545544009	-30.01935386296423	-8.584973850167673	-34.77257548346343	-0.1467026672562396	-2.870603628959501	-612.2200173957052	49.87786789794493	-1.761466566441003	-1.491553017270095	-0.7899659168962192	8.580926648786591	0.2760716567485247	1.889297399105869	-5.175516722992769	8.55802637906128	8.558026379061246	-2.715747813075196	0.1618704834338928	2.456793907710543	1.020995499984542	1.138993831144002e-07	2.125117311816024e-08	-6.164142648530402e-07	6.07172400734831e-07	6.659326714235585e-08	-2.03475099925913e-07	-6.937453348378676e-07
0.06	-0.01417210131742237	0.1306012562609131	0.9312270546304128	0.2104649168435955	-0.2357157881768652	-0.2301795980884963	-0.3009281167795907	0.2480921814008638	0.2480921814008639	0.1452328135248947	0.171168704256613	0.09412382368888715	0.05572591138538265	-0.1132824762710254	-0.09696243760592549	-0.04755554856217147	0.5514320405284222	0.0176678475712781	0.1228916560545285	-0.336933519193138	0.547813079683286	0.5478130796832852	-0.1754059036564449	0.01240915022688896	0.1558856094113442	0.06446871130252947	0.08525959696284614	-0.06773599703267529	0.007685949638478426	-0.2373537416658285	0.1123030624971702	-0.09029474336486951	-0.007752716807581748	-30.05968312973303	-9.952360345234844	-35.69076066111926	0.09602739976964224	-2.418618979507952	-610.4805646863028	46.1378075293344	-1.842077357769058	-1.442270597435042	-0.8256964441678325	8.512462922245298	0.1957168904378774	1.815307064756357	-4.809794881014263	8.414706835897185	8.414706835897167	-2.489991211107104	0.2026485684641513	2.402500634905596	0.9122656470044229	1.001374126158093e-07	1.010358641823796e-08	-5.006292253545158e-07	5.564423480138473e-07	6.296490432331738e-08	-2.759806104927344e-07	-6.099309950340648e-07
0.07000000000000001	-0.01539240550392682	0.1295607862593754	0.930710616879129	0.216394059084747	-0.2355278318569284	-0.2288620819675763	-0.3045381534667238	0.2539827568746681	0.2539827568746678	0.1433534317068934	0.1713011309779109	0.09580093565913678	0.05641766039685831	-0.1307035242527459	-0.1110223838131507	-0.05576341067283593	0.6339353140192504	0.01990712720365548	0.1404679270564588	-0.3846859747516208	0.6298542952325548	0.6298542952325539	-0.2002892765568618	0.01402267145350906	0.1794304902181974	0.07384357914933437	0.07995920345299701	-0.06991000991344209	0.008138064385928984	-0.2344785137089808	0.1076715066532159	-0.08397072775058016	-0.003350819840594329	-30.10301520119735	-10.99536880584754	-33.09196652521753	-0.3581525403664531	-2.595373791360416	-609.13979496457	49.88738278044843	-1.680880266431335	-1.371467250060399	-0.8230985162309772	8.050102789943168	0.2356279877536584	1.707341814001702	-4.699794371009182	8.031651077004458	8.031651077004453	-2.460352609022657	0.1327777739147734	2.314542262021939	0.9444595662060946	7.369949919901333e-08	-5.767822539177266e-09	-2.868403417512844e-07	5.127778331824797e-07	5.20262927404899e-08	-3.251705663685999e-07	-4.999951917963898e-07
